HIERARCHY
ROOT Hips
{
	OFFSET 0.00000 0.00000 0.00000
	CHANNELS 6 Xposition Yposition Zposition Zrotation Yrotation Xrotation 
	JOINT LHipJoint
	{
		OFFSET 0 0 0
		CHANNELS 3 Zrotation Yrotation Xrotation
		JOINT LeftUpLeg
		{
			OFFSET 1.34019 -1.87553 0.90315
			CHANNELS 3 Zrotation Yrotation Xrotation
			JOINT LeftLeg
			{
				OFFSET 2.55316 -7.01474 0.00000
				CHANNELS 3 Zrotation Yrotation Xrotation
				JOINT LeftFoot
				{
					OFFSET 2.64657 -7.27139 0.00000
					CHANNELS 3 Zrotation Yrotation Xrotation
					JOINT LeftToeBase
					{
						OFFSET 0.24207 -0.66507 2.14489
						CHANNELS 3 Zrotation Yrotation Xrotation
						End Site
						{
							OFFSET 0.00000 -0.00000 1.12451
						}
					}
				}
			}
		}
	}
	JOINT RHipJoint
	{
		OFFSET 0 0 0
		CHANNELS 3 Zrotation Yrotation Xrotation
		JOINT RightUpLeg
		{
			OFFSET -1.28320 -1.87553 0.90315
			CHANNELS 3 Zrotation Yrotation Xrotation
			JOINT RightLeg
			{
				OFFSET -2.60484 -7.15674 0.00000
				CHANNELS 3 Zrotation Yrotation Xrotation
				JOINT RightFoot
				{
					OFFSET -2.60296 -7.15159 0.00000
					CHANNELS 3 Zrotation Yrotation Xrotation
					JOINT RightToeBase
					{
						OFFSET -0.31082 -0.85398 2.28998
						CHANNELS 3 Zrotation Yrotation Xrotation
						End Site
						{
							OFFSET -0.00000 -0.00000 1.21611
						}
					}
				}
			}
		}
	}
	JOINT LowerBack
	{
		OFFSET 0 0 0
		CHANNELS 3 Zrotation Yrotation Xrotation
		JOINT Spine
		{
			OFFSET -0.00160 2.05581 -0.15156
			CHANNELS 3 Zrotation Yrotation Xrotation
			JOINT Spine1
			{
				OFFSET 0.04594 2.06326 -0.01617
				CHANNELS 3 Zrotation Yrotation Xrotation
				JOINT Neck
				{
					OFFSET 0 0 0
					CHANNELS 3 Zrotation Yrotation Xrotation
					JOINT Neck1
					{
						OFFSET 0.03753 1.73883 0.26751
						CHANNELS 3 Zrotation Yrotation Xrotation
						JOINT Head
						{
							OFFSET -0.09795 1.76129 -0.31794
							CHANNELS 3 Zrotation Yrotation Xrotation
							End Site
							{
								OFFSET -0.03611 1.79987 -0.13846
							}
						}
					}
				}
				JOINT LeftShoulder
				{
					OFFSET 0 0 0
					CHANNELS 3 Zrotation Yrotation Xrotation
					JOINT LeftArm
					{
						OFFSET 3.30667 1.29205 -0.22445
						CHANNELS 3 Zrotation Yrotation Xrotation
						JOINT LeftForeArm
						{
							OFFSET 4.92785 -0.00000 -0.00000
							CHANNELS 3 Zrotation Yrotation Xrotation
							JOINT LeftHand
							{
								OFFSET 3.44052 -0.00000 0.00000
								CHANNELS 3 Zrotation Yrotation Xrotation
								JOINT LeftFingerBase
								{
									OFFSET 0 0 0
									CHANNELS 3 Zrotation Yrotation Xrotation
									JOINT LeftHandIndex1
									{
										OFFSET 0.65433 -0.00000 0.00000
										CHANNELS 3 Zrotation Yrotation Xrotation
										End Site
										{
											OFFSET 0.52753 -0.00000 0.00000
										}
									}
								}
								JOINT LThumb
								{
									OFFSET 0 0 0
									CHANNELS 3 Zrotation Yrotation Xrotation
									End Site
									{
										OFFSET 0.53559 -0.00000 0.53559
									}
								}
							}
						}
					}
				}
				JOINT RightShoulder
				{
					OFFSET 0 0 0
					CHANNELS 3 Zrotation Yrotation Xrotation
					JOINT RightArm
					{
						OFFSET -3.20032 1.49783 -0.27688
						CHANNELS 3 Zrotation Yrotation Xrotation
						JOINT RightForeArm
						{
							OFFSET -5.09181 -0.00000 -0.00000
							CHANNELS 3 Zrotation Yrotation Xrotation
							JOINT RightHand
							{
								OFFSET -3.49865 -0.00000 -0.00000
								CHANNELS 3 Zrotation Yrotation Xrotation
								JOINT RightFingerBase
								{
									OFFSET 0 0 0
									CHANNELS 3 Zrotation Yrotation Xrotation
									JOINT RightHandIndex1
									{
										OFFSET -0.66641 -0.00000 0.00000
										CHANNELS 3 Zrotation Yrotation Xrotation
										End Site
										{
											OFFSET -0.53728 -0.00000 0.00000
										}
									}
								}
								JOINT RThumb
								{
									OFFSET 0 0 0
									CHANNELS 3 Zrotation Yrotation Xrotation
									End Site
									{
										OFFSET -0.54548 -0.00000 0.54548
									}
								}
							}
						}
					}
				}
			}
		}
	}
}
MOTION
Frames: 5
Frame Time: .0083333
2.0484 17.8594 37.8999 -1.2806 190.0440 365.2840 0.0000 0.0000 0.0000 -21.7504 -8.7313 -13.1126 2.3490 9.5581 27.5573 0.6071 2.6027 -15.8918 0.1190 -2.2236 -6.1239 0.0000 0.0000 0.0000 19.0502 -5.9358 -20.8243 -4.8854 -13.2536 40.3252 -0.5267 -18.6729 -30.3225 -0.0019 0.2830 -0.7776 0.4277 0.5491 2.8822 0.7475 0.7560 -0.4158 0.4919 0.3738 -2.0464 9.9775 0.7094 -17.9196 -10.3296 0.1667 21.5471 -5.3577 -0.4895 9.7947 -0.0000 -0.0000 0.0000 -87.0224 8.7880 22.0102 15.9386 -25.4373 -3.6195 -0.0000 0.0000 -10.8340 12.0346 -1.0977 -0.2340 -7.1250 0.0000 -0.0000 -11.2752 28.7777 4.5350 -0.0000 -0.0000 0.0000 84.7231 -1.9028 6.5684 -14.8179 23.8918 -3.1518 0.0000 -0.0000 -5.2366 -18.1923 -3.6065 1.1843 7.1250 -0.0000 -0.0000 6.8969 -33.7160 1.9203
2.0397 17.8606 37.9002 -1.1923 190.1910 365.2810 0.0000 0.0000 0.0000 -21.6715 -8.7798 -13.1430 2.3562 9.5716 27.6004 0.6121 2.4742 -15.8816 0.1194 -2.2273 -6.1341 0.0000 0.0000 0.0000 19.1892 -5.7994 -21.0097 -4.9212 -13.2945 40.4809 -0.6626 -17.9968 -30.4535 -0.0057 0.4882 -1.3415 0.4534 0.5133 2.9484 0.7414 0.7097 -0.4166 0.4728 0.3503 -2.0838 9.9268 0.6939 -18.0192 -10.2629 0.1376 21.6298 -5.3341 -0.5009 9.8395 0.0000 -0.0000 0.0000 -86.8698 8.7423 22.2979 16.1312 -25.6982 -3.7027 -0.0000 0.0000 -11.1924 12.4291 -1.1086 -0.2443 -7.1250 0.0000 -0.0000 -10.9709 28.7696 4.4105 0.0000 -0.0000 0.0000 84.8351 -1.9936 6.7718 -14.9330 24.0527 -3.1986 0.0000 -0.0000 -5.6960 -18.2932 -3.6457 1.2042 7.1250 -0.0000 -0.0000 6.8188 -33.7606 1.8909
2.0321 17.8620 37.8989 -1.0815 190.2910 365.2630 0.0000 0.0000 0.0000 -21.5695 -8.8220 -13.1542 2.3644 9.5871 27.6498 0.6168 2.3944 -15.8946 0.1193 -2.2271 -6.1337 0.0000 0.0000 0.0000 19.3543 -5.5867 -21.1264 -4.9340 -13.3091 40.5369 -0.7968 -17.2260 -30.4947 -0.0117 0.6995 -1.9223 0.4778 0.4973 3.0088 0.7497 0.6897 -0.4142 0.4681 0.3399 -2.1149 9.7734 0.6390 -18.1817 -10.1447 0.0623 21.8710 -5.2890 -0.5400 9.9473 0.0000 -0.0000 0.0000 -86.7309 8.6971 22.5685 16.3149 -25.9457 -3.7827 -0.0000 0.0000 -11.5815 12.7998 -1.1294 -0.2566 -7.1250 0.0000 -0.0000 -10.6838 28.7511 4.2960 0.0000 -0.0000 0.0000 84.9314 -2.1006 7.0017 -15.0598 24.2293 -3.2504 0.0000 -0.0000 -6.2289 -18.4145 -3.7188 1.2371 7.1250 -0.0000 -0.0000 6.7274 -33.8415 1.8520
2.0256 17.8633 37.8959 -0.9524 190.3470 365.2190 0.0000 0.0000 0.0000 -21.4501 -8.8421 -13.1350 2.3730 9.6033 27.7014 0.6213 2.3519 -15.9263 0.1193 -2.2270 -6.1334 0.0000 0.0000 0.0000 19.5383 -5.2968 -21.1525 -4.9224 -13.2959 40.4863 -0.9254 -16.4050 -30.4774 -0.0204 0.9215 -2.5329 0.4548 0.5304 3.0437 0.7891 0.7332 -0.3856 0.5191 0.3618 -2.1061 9.6617 0.5599 -18.2713 -10.0679 -0.0418 21.9772 -5.2619 -0.5907 9.9902 0.0000 0.0000 0.0000 -86.6120 8.6122 22.9171 16.4826 -26.1707 -3.8564 -0.0000 0.0000 -11.9780 13.1967 -1.1347 -0.2660 -7.1250 0.0000 -0.0000 -10.3778 28.7482 4.1699 0.0000 0.0000 0.0000 84.9900 -2.2006 7.1130 -15.1739 24.3878 -3.2974 0.0000 -0.0000 -6.6265 -18.4768 -3.7887 1.2649 7.1250 -0.0000 -0.0000 6.6836 -33.9168 1.8275
2.0172 17.8652 37.8924 -0.8307 190.4780 365.2650 0.0000 0.0000 0.0000 -21.3333 -9.0151 -13.1739 2.3823 9.6206 27.7568 0.6227 2.3585 -15.9456 0.1193 -2.2272 -6.1339 0.0000 0.0000 0.0000 19.7196 -4.9904 -21.2424 -4.8874 -13.2558 40.3337 -1.0358 -15.6015 -30.3937 -0.0314 1.1440 -3.1452 0.4390 0.5495 2.9521 0.8374 0.7572 -0.3628 0.5774 0.3740 -2.0323 9.5626 0.4727 -18.3101 -10.0068 -0.1522 21.9974 -5.2382 -0.6432 9.9920 0.0000 0.0000 0.0000 -86.5138 8.4988 23.2907 16.6480 -26.3913 -3.9296 -0.0000 0.0000 -12.4047 13.6065 -1.1129 -0.2694 -7.1250 0.0000 -0.0000 -10.0643 28.7724 4.0344 0.0000 0.0000 0.0000 85.0156 -2.2570 7.0524 -15.2346 24.4718 -3.3225 0.0000 -0.0000 -6.5327 -18.2911 -3.7045 1.2235 7.1250 -0.0000 -0.0000 6.8264 -33.8219 1.8828
